<?xml version="1.0" encoding="UTF-8" standalone="no"?>
<svg width="143px" height="143px" viewBox="0 0 143 143" version="1.1" xmlns="http://www.w3.org/2000/svg" xmlns:xlink="http://www.w3.org/1999/xlink" xmlns:sketch="http://www.bohemiancoding.com/sketch/ns">
    <!-- Generator: bin/sketchtool 1.4 (305) - http://www.bohemiancoding.com/sketch -->
    <title>geofence</title>
    <desc>Created with bin/sketchtool.</desc>
    <defs></defs>
    <g id="Page-1" stroke="none" stroke-width="1" fill="none" fill-rule="evenodd" sketch:type="MSPage">
        <g id="Desktop-HD" sketch:type="MSArtboardGroup" transform="translate(-649.000000, -2337.000000)">
            <g id="panel_4" sketch:type="MSLayerGroup" transform="translate(0.000000, 2181.000000)">
                <g id="see-live-statistics--+-plot-+-assured-integrity-fr-+-geofence-+-connect-to-the-peopl-+-😊" transform="translate(196.000000, 156.000000)" sketch:type="MSShapeGroup">
                    <g id="assured-integrity-fr-+-geofence" transform="translate(385.000000, 0.000000)">
                        <g id="geofence" transform="translate(68.000000, 0.000000)">
                            <circle id="Oval-36" stroke="#62FF32" fill-opacity="0.5" fill="#DEF8E2" cx="71.5" cy="71.5" r="70.5"></circle>
                            <path d="M71,94.828125 C71,94.828125 88.5,74.3368581 88.5,64.671875 C88.5,55.0068919 80.6649831,47.171875 71,47.171875 C61.3350169,47.171875 53.5,55.0068919 53.5,64.671875 C53.5,74.3368581 71,94.828125 71,94.828125 Z M71,71.171875 C74.5898509,71.171875 77.5,68.2617259 77.5,64.671875 C77.5,61.0820241 74.5898509,58.171875 71,58.171875 C67.4101491,58.171875 64.5,61.0820241 64.5,64.671875 C64.5,68.2617259 67.4101491,71.171875 71,71.171875 Z" id="Oval-34" fill="#6987FF"></path>
                        </g>
                    </g>
                </g>
            </g>
        </g>
    </g>
</svg>