<?xml version="1.0" encoding="UTF-8" standalone="no"?>
<svg width="177px" height="43px" viewBox="0 0 177 43" version="1.1" xmlns="http://www.w3.org/2000/svg" xmlns:xlink="http://www.w3.org/1999/xlink" xmlns:sketch="http://www.bohemiancoding.com/sketch/ns">
    <!-- Generator: Sketch 3.3.3 (12081) - http://www.bohemiancoding.com/sketch -->
    <title>Shape</title>
    <desc>Created with Sketch.</desc>
    <defs></defs>
    <g id="Page-1" stroke="none" stroke-width="1" fill="none" fill-rule="evenodd" sketch:type="MSPage">
        <g id="Desktop-HD" sketch:type="MSArtboardGroup" transform="translate(-120.000000, -19.000000)" fill="#FFFFFF">
            <g id="hero" sketch:type="MSLayerGroup" transform="translate(1.000000, 0.000000)">
                <g id="nav" transform="translate(116.000000, 14.000000)">
                    <g id="logo" transform="translate(3.000000, 0.000000)">
                        <text id="soulsoup" sketch:type="MSTextLayer" font-family="Open Sans" font-size="32" font-weight="bold">
                            <tspan x="33" y="34">soulsoup</tspan>
                        </text>
                        <path d="M21.8689937,17.2578197 C26.9999997,20.8613878 18.7884097,22.3764803 13.6750096,22.6363956 L13.5,22.6363956 C7.27762803,22.6329301 2.86426646,20.3214168 2.86426646,19.4619636 C2.86080092,18.6458296 6.84616866,16.5214553 12.5764343,16.3100575 L13.5987678,13.7576894 C13.5658452,13.7576894 13.5346554,13.7542239 13.5,13.7542239 C4.99557181,13.7542239 2.30926389e-14,16.4608084 2.30926389e-14,19.0409008 L2.30926389e-14,22.506438 C2.30926389e-14,24.0971195 1.00847131,38.012984 13.1378514,38.012984 C25.2672314,38.012984 27,24.0971195 27,22.506438 L27,19.0409008 C27,18.3633883 26.1277556,15.6198345 22.5241878,14.9646404 L22.5241878,14.9646404 L21.8689937,17.2578197 Z M18.3170966,17.5905735 L22.3648441,7.47467053 C22.7217944,6.58749301 22.2886022,5.5790217 21.399692,5.22033861 C20.5194455,4.86512105 19.5005776,5.29484765 19.1470928,6.18895624 L13.5,20.297158 C18.493839,20.042441 18.3170966,17.5905735 18.3170966,17.5905735 Z" id="Shape" sketch:type="MSShapeGroup"></path>
                    </g>
                </g>
            </g>
        </g>
    </g>
</svg>